<svg width="64" height="64" viewBox="0 0 64 64" xmlns="http://www.w3.org/2000/svg" xmlns:xlink="http://www.w3.org/1999/xlink"><defs><path d="M22.313 0h19.374c6.425 0 9.637 0 13.095 1.093a13.593 13.593 0 0 1 8.125 8.125C64 12.676 64 15.888 64 22.313v19.374c0 6.425 0 9.637-1.093 13.095a13.59 13.59 0 0 1-8.125 8.124C51.324 64 48.112 64 41.687 64H22.313c-6.425 0-9.637 0-13.095-1.094a13.59 13.59 0 0 1-8.125-8.124C0 51.324 0 48.112 0 41.687V22.313c0-6.424 0-9.637 1.093-13.095a13.593 13.593 0 0 1 8.125-8.125C12.676 0 15.888 0 22.313 0" id="a"/></defs><g fill="none" fill-rule="evenodd"><mask id="b" fill="#fff"><use xlink:href="#a"/></mask><use fill="#FFF" xlink:href="#a"/><path d="M12.068 23.59l.78 6.492 17.625 7.503v4.93L9.14 31.473 8 22.552l4.068 1.039zm39.875 0L56 22.553l-1.028 8.921-21.23 11.042v-4.93l17.522-7.503.679-6.491zm-2.82.737l-.319 4.46-16.699 6.177-16.749-6.178-.368-4.459 17.117 4.367 17.018-4.367z" fill="#03A9F4" mask="url(#b)"/></g></svg>